<svg width="16" height="16" xmlns="http://www.w3.org/2000/svg">

 <g>
  <title>Layer 1</title>
  <g stroke="null" id="svg_1">
   <polyline stroke="#1e2d40" id="svg_2" points="9.587179571390152,1.5 9.587179571390152,5.069230794906616 12.99230781197548,5.069230794906616 " stroke-miterlimit="10" fill="none" data-cap="butt"/>
   <polyline stroke="#1e2d40" id="svg_3" points="12.99230781197548,6.853846192359924 12.99230781197548,5.069230794906616 9.587179571390152,1.5 2.7769230902194977,1.5 2.7769230902194977,6.853846192359924 " stroke-miterlimit="10" stroke-linecap="square" fill="none"/>
   <polyline stroke="#1e2d40" id="svg_4" points="2.7769230902194977,13.100000083446503 2.7769230902194977,14.88461548089981 12.99230781197548,14.88461548089981 12.99230781197548,13.100000083446503 " stroke-miterlimit="10" stroke-linecap="square" fill="none"/>
   <path stroke="null" id="svg_5" stroke-linecap="square" d="m6.66856,9.57762c0,0.28465 -0.08002,0.5046 -0.24006,0.65986s-0.38776,0.23245 -0.68273,0.23245l-0.18473,0l0,0.84546l-0.65676,0l0,-2.54798l0.84149,0c0.30689,0 0.53758,0.07005 0.69167,0.21103s0.23112,0.33997 0.23112,0.59918zm-1.10752,0.33149l0.11961,0c0.09875,0 0.17707,-0.029 0.23538,-0.087s0.08726,-0.13831 0.08726,-0.24048c0,-0.17222 -0.09066,-0.25788 -0.27284,-0.25788l-0.16941,0l0,0.58535z" fill="#1e2d40" data-stroke="none" data-color="color-2"/>
   <path stroke="null" id="svg_6" stroke-linecap="square" d="m9.11897,9.98718c0,0.42518 -0.11152,0.75311 -0.33498,0.98288s-0.53716,0.34532 -0.94194,0.34532l-0.78658,0l0,-2.54798l0.84149,0c0.39031,0 0.69167,0.1044 0.90364,0.31365s0.31838,0.51129 0.31838,0.90614zm-0.68145,0.02454c0,-0.23334 -0.04427,-0.40645 -0.13237,-0.51932s-0.22176,-0.16909 -0.40138,-0.16909l-0.19111,0l0,1.42725l0.14642,0c0.19963,0 0.34562,-0.06068 0.43884,-0.18203s0.13961,-0.30695 0.13961,-0.5568z" fill="#1e2d40" data-stroke="none" data-color="color-2"/>
   <path stroke="null" id="svg_7" stroke-linecap="square" d="m10.20138,11.31538l-0.64697,0l0,-2.54798l1.43654,0l0,0.55234l-0.78956,0l0,0.48631l0.72827,0l0,0.55234l-0.72827,0l0,0.957z" fill="#1e2d40" data-stroke="none" data-color="color-2"/>
   <rect stroke="#1e2d40" id="svg_8" height="6.24615" width="12.76923" stroke-miterlimit="10" stroke-linecap="square" fill="none" y="6.85385" x="1.5"/>
  </g>
 </g>
</svg>