<svg width="137" height="137" xmlns="http://www.w3.org/2000/svg">
 <g>
  <title>Layer 1</title>
  <path stroke-width="0" id="svg_5" d="m68.5,137c-37.8453,0 -68.5,-30.6547 -68.5,-68.5c0,-37.8453 30.6547,-68.5 68.5,-68.5c37.8453,0 68.5,30.6547 68.5,68.5c0,37.8453 -30.6547,68.5 -68.5,68.5z" opacity="undefined" stroke="#000" fill="#fff"/>
  <g id="svg_1">
   <g id="svg_2" transform="translate(-9.52381, -9.50521) scale(1.19048)" stroke="#111111" fill="#111111">
    <g id="svg_3" xmlns="http://www.w3.org/2000/svg" stroke="#111111" fill="#111111">
     <path id="svg_4" d="m65.38362,23.53093a1.0001,1.0001 0 0 0 -0.59375,0.3125c-3.18802,3.503 -5.78042,8.20677 -7.5625,13.6875l-32.6875,0a1.0001,1.0001 0 0 0 -0.1875,0a1.0001,1.0001 0 0 0 -0.8125,1l0,51a1.0001,1.0001 0 0 0 1,1l40,0l0,7.03125c-7.55574,0.26527 -14.14891,3.47369 -17.8125,8.34375a1.0001,1.0001 0 0 0 0.8125,1.625l36,0a1.0001,1.0001 0 0 0 0.8125,-1.625c-3.66359,-4.87006 -10.25676,-8.07848 -17.8125,-8.34375l0,-8.03125a1.0001,1.0001 0 0 0 -1,-1l-40,0l0,-49l31.09375,0c-1.34323,4.7978 -2.09375,10.10346 -2.09375,15.71875c0,0.42784 0.02229,0.85698 0.03125,1.28125l-8.5625,5.125a1.0001,1.0001 0 0 0 -0.46875,0.875l0,12a1.0001,1.0001 0 0 0 1.375,0.90625l9.9375,-3.9375c0.12893,0.43918 0.23658,0.88258 0.375,1.3125a1.0001,1.0001 0 0 0 0.9375,0.71875l14.75,0a1.0001,1.0001 0 0 0 0.9375,-0.71875c0.13842,-0.42992 0.24607,-0.87332 0.375,-1.3125l9.9375,3.9375a1.0001,1.0001 0 0 0 1.375,-0.90625l0,-12a1.0001,1.0001 0 0 0 -0.46875,-0.875l-8.5625,-5.125c0.00896,-0.42427 0.03125,-0.85341 0.03125,-1.28125c0,-5.61529 -0.75052,-10.92095 -2.09375,-15.71875l31.09375,0l0,49l-32.03125,0a1.0001,1.0001 0 1 0 0,2l33.03125,0a1.0001,1.0001 0 0 0 1,-1l0,-51a1.0001,1.0001 0 0 0 -1,-1l-32.6875,0c-1.78208,-5.48073 -4.37448,-10.1845 -7.5625,-13.6875a1.0001,1.0001 0 0 0 -0.90625,-0.3125zm0.15625,2.71875c5.35505,6.4901 9,16.97796 9,29c0,5.876 -0.90467,11.38765 -2.40625,16.28125l-13.1875,0c-1.50158,-4.8936 -2.40625,-10.40525 -2.40625,-16.28125c0,-12.02204 3.64495,-22.5099 9,-29zm0,16.28125c-2.74958,0 -5,2.25042 -5,5c0,2.74958 2.25042,5 5,5c2.74958,0 5,-2.25042 5,-5c0,-2.74958 -2.25042,-5 -5,-5zm0,2c1.6687,0 3,1.3313 3,3c0,1.6687 -1.3313,3 -3,3c-1.6687,0 -3,-1.3313 -3,-3c0,-1.6687 1.3313,-3 3,-3zm-10.875,14.28125c0.22391,3.78629 0.7975,7.40069 1.65625,10.78125l-8.78125,3.46875l0,-9.96875l7.125,-4.28125zm21.75,0l7.125,4.28125l0,9.96875l-8.78125,-3.46875c0.85875,-3.38056 1.43234,-6.99496 1.65625,-10.78125zm-10.875,40.71875c6.46939,0 12.03753,2.4246 15.625,6l-31.25,0c3.58748,-3.5754 9.15561,-6 15.625,-6z" fill="#111111" stroke-width="2px" stroke=" none"/>
    </g>
   </g>
  </g>
 </g>

</svg>